<?xml version="1.0" standalone="no"?>
<!DOCTYPE svg PUBLIC "-//W3C//DTD SVG 20010904//EN"
 "http://www.w3.org/TR/2001/REC-SVG-20010904/DTD/svg10.dtd">
<svg version="1.0" xmlns="http://www.w3.org/2000/svg"
 width="300.000000pt" height="282.000000pt" viewBox="0 0 300.000000 282.000000"
 preserveAspectRatio="xMidYMid meet">
<metadata>
Created by potrace 1.10, written by Peter Selinger 2001-2011
</metadata>
<g transform="translate(0.000000,282.000000) scale(0.100000,-0.100000)"
fill="#000000" stroke="none">
<path d="M1325 2493 c-568 -73 -974 -579 -906 -1130 37 -301 189 -558 433
-729 43 -31 81 -55 82 -53 6 7 26 48 26 52 0 3 -24 20 -52 38 -179 115 -330
319 -393 535 -36 121 -46 329 -21 455 39 196 133 366 283 510 76 74 143 118
278 185 107 53 113 55 251 69 123 14 154 14 250 1 220 -29 416 -126 565 -278
60 -62 67 -66 72 -45 2 12 8 29 11 39 11 24 -154 164 -267 226 -186 101 -422
150 -612 125z"/>
<path d="M1120 2328 c-163 -81 -366 -346 -446 -583 -36 -106 -39 -229 -8 -272
37 -51 77 -63 252 -73 203 -11 243 -22 298 -75 24 -23 44 -46 44 -52 0 -5 -30
-33 -66 -63 -96 -78 -194 -177 -238 -243 -31 -45 -40 -69 -44 -114 -6 -69 8
-83 82 -83 90 1 183 62 259 172 58 85 80 158 74 244 l-5 72 108 86 c59 47 142
117 183 156 41 38 78 70 81 70 3 0 6 -17 6 -37 0 -21 9 -53 20 -71 47 -77 116
-66 209 33 l61 66 0 -35 c0 -51 9 -66 39 -66 39 0 66 34 107 136 20 49 39 91
42 94 2 3 2 -51 -1 -120 -6 -143 5 -326 22 -358 20 -37 43 -17 36 32 -10 69
-12 405 -3 510 4 54 22 150 39 213 30 115 34 163 12 170 -21 7 -43 -43 -63
-148 -35 -175 -36 -179 -72 -179 -37 0 -85 -46 -117 -115 -35 -75 -149 -203
-210 -235 -20 -10 -26 -9 -45 9 -19 20 -21 31 -19 124 1 56 4 118 5 137 2 26
-1 35 -14 38 -21 4 -43 -36 -53 -97 -6 -37 -17 -53 -64 -96 -79 -74 -320 -275
-329 -275 -4 0 -14 13 -23 29 -21 37 -96 81 -163 96 -29 7 -115 16 -192 20
-201 10 -233 28 -234 126 0 130 101 347 243 517 98 119 148 163 222 198 122
58 200 6 224 -147 12 -70 2 -192 -24 -301 -24 -101 -19 -159 12 -140 18 11 61
189 71 290 16 161 -22 298 -97 349 -53 36 -139 32 -221 -9z m1020 -621 c-49
-117 -94 -207 -103 -207 -18 0 0 107 29 170 27 61 85 123 92 101 2 -7 -6 -35
-18 -64z m-860 -600 c-29 -143 -190 -305 -292 -295 -28 2 -34 7 -36 31 -7 55
72 156 232 300 l90 81 9 -33 c5 -20 4 -53 -3 -84z"/>
<path d="M1767 1972 c-20 -22 -21 -42 -4 -66 15 -21 51 -15 61 9 7 20 -13 75
-28 75 -7 0 -20 -8 -29 -18z"/>
<path d="M2316 1933 c-5 -38 -2 -61 18 -110 51 -130 61 -187 60 -358 0 -144
-3 -169 -28 -250 -15 -49 -42 -121 -60 -160 -65 -138 -222 -318 -333 -381 -27
-15 -49 -28 -51 -29 -7 -5 22 -55 32 -55 21 0 185 130 236 188 287 318 350
737 172 1139 -15 34 -30 63 -34 63 -3 0 -9 -21 -12 -47z"/>
<path d="M994 583 c-11 -27 -20 -50 -22 -54 -3 -6 63 -39 78 -39 22 0 8 19
-20 29 -16 5 -30 17 -30 25 0 18 25 22 35 6 8 -13 35 -13 35 0 0 5 -11 12 -25
16 -24 6 -32 23 -19 37 4 3 19 0 35 -8 17 -9 30 -11 34 -5 5 8 -54 40 -75 40
-4 0 -16 -21 -26 -47z"/>
<path d="M1837 624 c-4 -4 -7 -25 -7 -46 l0 -39 -33 25 c-32 25 -62 35 -55 18
2 -4 12 -31 22 -60 11 -29 24 -52 28 -52 12 0 10 13 -8 56 l-16 39 29 -27 c41
-39 53 -36 54 15 l1 42 15 -37 c9 -21 22 -38 29 -38 9 0 6 15 -11 52 -25 53
-35 64 -48 52z"/>
<path d="M1237 532 c-22 -24 -21 -65 1 -85 20 -18 82 -23 82 -7 0 6 -13 10
-29 10 -49 0 -68 49 -29 74 13 8 23 8 38 -2 27 -17 47 -5 23 14 -26 19 -67 17
-86 -4z"/>
<path d="M1507 529 c-34 -26 -36 -71 -5 -93 32 -22 61 -20 86 7 27 28 28 48 5
75 -28 31 -56 35 -86 11z m73 -29 c14 -25 2 -49 -26 -56 -48 -12 -73 41 -33
70 24 17 45 12 59 -14z"/>
</g>
</svg>
